<?xml version="1.0" standalone="no"?>
<!DOCTYPE svg PUBLIC "-//W3C//DTD SVG 20010904//EN"
 "http://www.w3.org/TR/2001/REC-SVG-20010904/DTD/svg10.dtd">
<svg version="1.0" xmlns="http://www.w3.org/2000/svg"
 width="707.000000pt" height="707.000000pt" viewBox="0 0 707.000000 707.000000"
 preserveAspectRatio="xMidYMid meet">
<metadata>
Created by potrace 1.14, written by Peter Selinger 2001-2017
</metadata>
<g transform="translate(0.000000,707.000000) scale(0.100000,-0.100000)"
fill="#000000" stroke="none">
<path d="M0 3535 l0 -3535 3535 0 3535 0 0 3535 0 3535 -3535 0 -3535 0 0
-3535z m3910 1884 c141 -60 245 -178 290 -330 39 -135 41 -149 31 -223 -6 -39
-15 -109 -21 -156 -14 -106 -28 -155 -57 -202 -13 -21 -23 -41 -23 -46 0 -5
-29 -45 -65 -89 -154 -192 -320 -263 -517 -222 -71 15 -217 91 -264 138 -85
83 -184 228 -184 269 0 12 -4 22 -9 22 -4 0 -11 17 -15 38 -4 20 -11 64 -17
97 -14 76 -13 143 2 161 6 7 8 18 4 24 -8 14 23 100 36 100 5 0 9 11 9 25 0
14 5 25 10 25 6 0 10 7 10 15 0 9 5 21 10 28 6 7 37 46 69 88 78 101 148 156
269 214 41 19 71 28 157 49 11 3 65 4 120 2 78 -3 113 -9 155 -27z"/>
</g>
</svg>
